<mxfile host="Electron" modified="2024-10-12T15:14:27.964Z" agent="Mozilla/5.0 (Windows NT 10.0; Win64; x64) AppleWebKit/537.36 (KHTML, like Gecko) draw.io/24.2.5 Chrome/120.0.6099.109 Electron/28.1.0 Safari/537.36" etag="kfFkjVGsW4INZsh5z027" version="24.2.5" type="device">
  <diagram id="C5RBs43oDa-KdzZeNtuy" name="Page-1">
    <mxGraphModel dx="2046" dy="1882" grid="1" gridSize="10" guides="1" tooltips="1" connect="1" arrows="1" fold="1" page="1" pageScale="1" pageWidth="827" pageHeight="1169" math="0" shadow="0">
      <root>
        <mxCell id="WIyWlLk6GJQsqaUBKTNV-0" />
        <mxCell id="WIyWlLk6GJQsqaUBKTNV-1" parent="WIyWlLk6GJQsqaUBKTNV-0" />
        <mxCell id="XjZhIQk6Q3h-rhs3_x2L-0" value="Book" style="rounded=0;whiteSpace=wrap;html=1;fillColor=#d5e8d4;strokeColor=#82b366;" parent="WIyWlLk6GJQsqaUBKTNV-1" vertex="1">
          <mxGeometry x="310.00000000000006" y="210" width="120" height="60" as="geometry" />
        </mxCell>
        <mxCell id="XjZhIQk6Q3h-rhs3_x2L-1" value="Publisher" style="rounded=0;whiteSpace=wrap;html=1;fillColor=#d5e8d4;strokeColor=#82b366;" parent="WIyWlLk6GJQsqaUBKTNV-1" vertex="1">
          <mxGeometry x="310" y="-50" width="120" height="60" as="geometry" />
        </mxCell>
        <mxCell id="XjZhIQk6Q3h-rhs3_x2L-2" value="Admin" style="rounded=0;whiteSpace=wrap;html=1;fillColor=#d5e8d4;strokeColor=#82b366;" parent="WIyWlLk6GJQsqaUBKTNV-1" vertex="1">
          <mxGeometry x="770" y="210" width="120" height="60" as="geometry" />
        </mxCell>
        <mxCell id="XjZhIQk6Q3h-rhs3_x2L-3" value="Reader" style="rounded=0;whiteSpace=wrap;html=1;fillColor=#d5e8d4;strokeColor=#82b366;" parent="WIyWlLk6GJQsqaUBKTNV-1" vertex="1">
          <mxGeometry x="310.01" y="540" width="120" height="60" as="geometry" />
        </mxCell>
        <mxCell id="XjZhIQk6Q3h-rhs3_x2L-4" value="Author" style="rounded=0;whiteSpace=wrap;html=1;fillColor=#d5e8d4;strokeColor=#82b366;" parent="WIyWlLk6GJQsqaUBKTNV-1" vertex="1">
          <mxGeometry x="-90" y="210" width="120" height="60" as="geometry" />
        </mxCell>
        <mxCell id="XjZhIQk6Q3h-rhs3_x2L-5" value="&lt;u&gt;Publisher_Code&lt;/u&gt;" style="ellipse;whiteSpace=wrap;html=1;fillColor=#fff2cc;strokeColor=#d6b656;" parent="WIyWlLk6GJQsqaUBKTNV-1" vertex="1">
          <mxGeometry x="140" y="-150" width="110" height="50" as="geometry" />
        </mxCell>
        <mxCell id="XjZhIQk6Q3h-rhs3_x2L-55" style="edgeStyle=orthogonalEdgeStyle;rounded=0;orthogonalLoop=1;jettySize=auto;html=1;exitX=1;exitY=0.5;exitDx=0;exitDy=0;entryX=0;entryY=0.5;entryDx=0;entryDy=0;" parent="WIyWlLk6GJQsqaUBKTNV-1" source="XjZhIQk6Q3h-rhs3_x2L-6" target="XjZhIQk6Q3h-rhs3_x2L-1" edge="1">
          <mxGeometry relative="1" as="geometry" />
        </mxCell>
        <mxCell id="XjZhIQk6Q3h-rhs3_x2L-6" value="Publisher_name" style="ellipse;whiteSpace=wrap;html=1;fillColor=#fff2cc;strokeColor=#d6b656;" parent="WIyWlLk6GJQsqaUBKTNV-1" vertex="1">
          <mxGeometry x="110" y="-50" width="110" height="50" as="geometry" />
        </mxCell>
        <mxCell id="XjZhIQk6Q3h-rhs3_x2L-7" value="Publish" style="html=1;whiteSpace=wrap;aspect=fixed;shape=isoRectangle;fillColor=#f8cecc;strokeColor=#b85450;" parent="WIyWlLk6GJQsqaUBKTNV-1" vertex="1">
          <mxGeometry x="303.34000000000003" y="70" width="133.33" height="80" as="geometry" />
        </mxCell>
        <mxCell id="XjZhIQk6Q3h-rhs3_x2L-10" style="edgeStyle=orthogonalEdgeStyle;rounded=0;orthogonalLoop=1;jettySize=auto;html=1;exitX=0.5;exitY=1;exitDx=0;exitDy=0;" parent="WIyWlLk6GJQsqaUBKTNV-1" source="XjZhIQk6Q3h-rhs3_x2L-1" edge="1">
          <mxGeometry relative="1" as="geometry">
            <mxPoint x="370" y="70" as="targetPoint" />
          </mxGeometry>
        </mxCell>
        <mxCell id="XjZhIQk6Q3h-rhs3_x2L-11" style="edgeStyle=orthogonalEdgeStyle;rounded=0;orthogonalLoop=1;jettySize=auto;html=1;exitX=0.5;exitY=0;exitDx=0;exitDy=0;" parent="WIyWlLk6GJQsqaUBKTNV-1" source="XjZhIQk6Q3h-rhs3_x2L-0" edge="1">
          <mxGeometry relative="1" as="geometry">
            <mxPoint x="370" y="150" as="targetPoint" />
          </mxGeometry>
        </mxCell>
        <mxCell id="XjZhIQk6Q3h-rhs3_x2L-12" value="1" style="text;html=1;align=center;verticalAlign=middle;whiteSpace=wrap;rounded=0;" parent="WIyWlLk6GJQsqaUBKTNV-1" vertex="1">
          <mxGeometry x="310" y="10" width="60" height="30" as="geometry" />
        </mxCell>
        <mxCell id="XjZhIQk6Q3h-rhs3_x2L-14" value="M" style="text;html=1;align=center;verticalAlign=middle;whiteSpace=wrap;rounded=0;" parent="WIyWlLk6GJQsqaUBKTNV-1" vertex="1">
          <mxGeometry x="310" y="180" width="60" height="30" as="geometry" />
        </mxCell>
        <mxCell id="XjZhIQk6Q3h-rhs3_x2L-16" value="Written By" style="html=1;whiteSpace=wrap;aspect=fixed;shape=isoRectangle;fillColor=#f8cecc;strokeColor=#b85450;" parent="WIyWlLk6GJQsqaUBKTNV-1" vertex="1">
          <mxGeometry x="90" y="200" width="133.33" height="80" as="geometry" />
        </mxCell>
        <mxCell id="XjZhIQk6Q3h-rhs3_x2L-17" style="edgeStyle=orthogonalEdgeStyle;rounded=0;orthogonalLoop=1;jettySize=auto;html=1;exitX=1;exitY=0.5;exitDx=0;exitDy=0;entryX=-0.001;entryY=0.507;entryDx=0;entryDy=0;entryPerimeter=0;" parent="WIyWlLk6GJQsqaUBKTNV-1" source="XjZhIQk6Q3h-rhs3_x2L-4" target="XjZhIQk6Q3h-rhs3_x2L-16" edge="1">
          <mxGeometry relative="1" as="geometry" />
        </mxCell>
        <mxCell id="XjZhIQk6Q3h-rhs3_x2L-18" style="edgeStyle=orthogonalEdgeStyle;rounded=0;orthogonalLoop=1;jettySize=auto;html=1;exitX=0;exitY=0.5;exitDx=0;exitDy=0;entryX=1.022;entryY=0.507;entryDx=0;entryDy=0;entryPerimeter=0;" parent="WIyWlLk6GJQsqaUBKTNV-1" source="XjZhIQk6Q3h-rhs3_x2L-0" target="XjZhIQk6Q3h-rhs3_x2L-16" edge="1">
          <mxGeometry relative="1" as="geometry" />
        </mxCell>
        <mxCell id="XjZhIQk6Q3h-rhs3_x2L-19" value="1" style="text;html=1;align=center;verticalAlign=middle;whiteSpace=wrap;rounded=0;" parent="WIyWlLk6GJQsqaUBKTNV-1" vertex="1">
          <mxGeometry x="20" y="210" width="60" height="30" as="geometry" />
        </mxCell>
        <mxCell id="XjZhIQk6Q3h-rhs3_x2L-20" value="M" style="text;html=1;align=center;verticalAlign=middle;whiteSpace=wrap;rounded=0;" parent="WIyWlLk6GJQsqaUBKTNV-1" vertex="1">
          <mxGeometry x="250" y="210" width="60" height="30" as="geometry" />
        </mxCell>
        <mxCell id="XjZhIQk6Q3h-rhs3_x2L-22" value="Manage" style="html=1;whiteSpace=wrap;aspect=fixed;shape=isoRectangle;fillColor=#f8cecc;strokeColor=#b85450;" parent="WIyWlLk6GJQsqaUBKTNV-1" vertex="1">
          <mxGeometry x="540" y="200" width="133.33" height="80" as="geometry" />
        </mxCell>
        <mxCell id="XjZhIQk6Q3h-rhs3_x2L-23" style="edgeStyle=orthogonalEdgeStyle;rounded=0;orthogonalLoop=1;jettySize=auto;html=1;exitX=1;exitY=0.5;exitDx=0;exitDy=0;entryX=0.011;entryY=0.507;entryDx=0;entryDy=0;entryPerimeter=0;" parent="WIyWlLk6GJQsqaUBKTNV-1" source="XjZhIQk6Q3h-rhs3_x2L-0" target="XjZhIQk6Q3h-rhs3_x2L-22" edge="1">
          <mxGeometry relative="1" as="geometry" />
        </mxCell>
        <mxCell id="XjZhIQk6Q3h-rhs3_x2L-24" style="edgeStyle=orthogonalEdgeStyle;rounded=0;orthogonalLoop=1;jettySize=auto;html=1;exitX=0;exitY=0.5;exitDx=0;exitDy=0;entryX=1.014;entryY=0.496;entryDx=0;entryDy=0;entryPerimeter=0;" parent="WIyWlLk6GJQsqaUBKTNV-1" source="XjZhIQk6Q3h-rhs3_x2L-2" target="XjZhIQk6Q3h-rhs3_x2L-22" edge="1">
          <mxGeometry relative="1" as="geometry" />
        </mxCell>
        <mxCell id="XjZhIQk6Q3h-rhs3_x2L-25" value="M" style="text;html=1;align=center;verticalAlign=middle;whiteSpace=wrap;rounded=0;" parent="WIyWlLk6GJQsqaUBKTNV-1" vertex="1">
          <mxGeometry x="430" y="210" width="60" height="30" as="geometry" />
        </mxCell>
        <mxCell id="XjZhIQk6Q3h-rhs3_x2L-26" value="1" style="text;html=1;align=center;verticalAlign=middle;whiteSpace=wrap;rounded=0;" parent="WIyWlLk6GJQsqaUBKTNV-1" vertex="1">
          <mxGeometry x="710" y="210" width="60" height="30" as="geometry" />
        </mxCell>
        <mxCell id="XjZhIQk6Q3h-rhs3_x2L-29" value="M" style="text;html=1;align=center;verticalAlign=middle;whiteSpace=wrap;rounded=0;" parent="WIyWlLk6GJQsqaUBKTNV-1" vertex="1">
          <mxGeometry x="310.00999999999993" y="510" width="60" height="30" as="geometry" />
        </mxCell>
        <mxCell id="XjZhIQk6Q3h-rhs3_x2L-30" value="borrow" style="html=1;whiteSpace=wrap;aspect=fixed;shape=isoRectangle;fillColor=#f8cecc;strokeColor=#b85450;" parent="WIyWlLk6GJQsqaUBKTNV-1" vertex="1">
          <mxGeometry x="303.34000000000003" y="370" width="133.33" height="80" as="geometry" />
        </mxCell>
        <mxCell id="XjZhIQk6Q3h-rhs3_x2L-31" style="edgeStyle=orthogonalEdgeStyle;rounded=0;orthogonalLoop=1;jettySize=auto;html=1;exitX=0.5;exitY=1;exitDx=0;exitDy=0;entryX=0.505;entryY=0.069;entryDx=0;entryDy=0;entryPerimeter=0;" parent="WIyWlLk6GJQsqaUBKTNV-1" source="XjZhIQk6Q3h-rhs3_x2L-0" target="XjZhIQk6Q3h-rhs3_x2L-30" edge="1">
          <mxGeometry relative="1" as="geometry" />
        </mxCell>
        <mxCell id="XjZhIQk6Q3h-rhs3_x2L-32" style="edgeStyle=orthogonalEdgeStyle;rounded=0;orthogonalLoop=1;jettySize=auto;html=1;exitX=0.5;exitY=0;exitDx=0;exitDy=0;entryX=0.5;entryY=1;entryDx=0;entryDy=0;entryPerimeter=0;" parent="WIyWlLk6GJQsqaUBKTNV-1" source="XjZhIQk6Q3h-rhs3_x2L-3" target="XjZhIQk6Q3h-rhs3_x2L-30" edge="1">
          <mxGeometry relative="1" as="geometry" />
        </mxCell>
        <mxCell id="XjZhIQk6Q3h-rhs3_x2L-33" value="M" style="text;html=1;align=center;verticalAlign=middle;whiteSpace=wrap;rounded=0;" parent="WIyWlLk6GJQsqaUBKTNV-1" vertex="1">
          <mxGeometry x="310" y="270" width="60" height="30" as="geometry" />
        </mxCell>
        <mxCell id="XjZhIQk6Q3h-rhs3_x2L-34" value="Reserve_Date" style="ellipse;whiteSpace=wrap;html=1;fillColor=#fff2cc;strokeColor=#d6b656;" parent="WIyWlLk6GJQsqaUBKTNV-1" vertex="1">
          <mxGeometry x="130" y="360" width="110" height="50" as="geometry" />
        </mxCell>
        <mxCell id="XjZhIQk6Q3h-rhs3_x2L-35" style="edgeStyle=orthogonalEdgeStyle;rounded=0;orthogonalLoop=1;jettySize=auto;html=1;exitX=1;exitY=0.5;exitDx=0;exitDy=0;entryX=0.015;entryY=0.519;entryDx=0;entryDy=0;entryPerimeter=0;" parent="WIyWlLk6GJQsqaUBKTNV-1" source="XjZhIQk6Q3h-rhs3_x2L-34" target="XjZhIQk6Q3h-rhs3_x2L-30" edge="1">
          <mxGeometry relative="1" as="geometry" />
        </mxCell>
        <mxCell id="XjZhIQk6Q3h-rhs3_x2L-36" value="Return_Date" style="ellipse;whiteSpace=wrap;html=1;fillColor=#fff2cc;strokeColor=#d6b656;" parent="WIyWlLk6GJQsqaUBKTNV-1" vertex="1">
          <mxGeometry x="101.67" y="470" width="110" height="50" as="geometry" />
        </mxCell>
        <mxCell id="XjZhIQk6Q3h-rhs3_x2L-39" style="edgeStyle=orthogonalEdgeStyle;rounded=0;orthogonalLoop=1;jettySize=auto;html=1;exitX=1;exitY=0.5;exitDx=0;exitDy=0;entryX=0.01;entryY=0.535;entryDx=0;entryDy=0;entryPerimeter=0;" parent="WIyWlLk6GJQsqaUBKTNV-1" source="XjZhIQk6Q3h-rhs3_x2L-36" target="XjZhIQk6Q3h-rhs3_x2L-30" edge="1">
          <mxGeometry relative="1" as="geometry" />
        </mxCell>
        <mxCell id="XjZhIQk6Q3h-rhs3_x2L-40" value="Due_Date" style="ellipse;whiteSpace=wrap;html=1;fillColor=#fff2cc;strokeColor=#d6b656;" parent="WIyWlLk6GJQsqaUBKTNV-1" vertex="1">
          <mxGeometry x="540" y="385" width="110" height="50" as="geometry" />
        </mxCell>
        <mxCell id="XjZhIQk6Q3h-rhs3_x2L-41" style="edgeStyle=orthogonalEdgeStyle;rounded=0;orthogonalLoop=1;jettySize=auto;html=1;exitX=0;exitY=0.5;exitDx=0;exitDy=0;entryX=1.015;entryY=0.51;entryDx=0;entryDy=0;entryPerimeter=0;" parent="WIyWlLk6GJQsqaUBKTNV-1" source="XjZhIQk6Q3h-rhs3_x2L-40" target="XjZhIQk6Q3h-rhs3_x2L-30" edge="1">
          <mxGeometry relative="1" as="geometry" />
        </mxCell>
        <mxCell id="XjZhIQk6Q3h-rhs3_x2L-43" value="Keep track of" style="html=1;whiteSpace=wrap;aspect=fixed;shape=isoRectangle;fillColor=#f8cecc;strokeColor=#b85450;" parent="WIyWlLk6GJQsqaUBKTNV-1" vertex="1">
          <mxGeometry x="763.3299999999999" y="530" width="133.33" height="80" as="geometry" />
        </mxCell>
        <mxCell id="XjZhIQk6Q3h-rhs3_x2L-44" style="edgeStyle=orthogonalEdgeStyle;rounded=0;orthogonalLoop=1;jettySize=auto;html=1;exitX=1;exitY=0.5;exitDx=0;exitDy=0;entryX=-0.003;entryY=0.493;entryDx=0;entryDy=0;entryPerimeter=0;" parent="WIyWlLk6GJQsqaUBKTNV-1" source="XjZhIQk6Q3h-rhs3_x2L-3" target="XjZhIQk6Q3h-rhs3_x2L-43" edge="1">
          <mxGeometry relative="1" as="geometry" />
        </mxCell>
        <mxCell id="XjZhIQk6Q3h-rhs3_x2L-45" style="edgeStyle=orthogonalEdgeStyle;rounded=0;orthogonalLoop=1;jettySize=auto;html=1;exitX=0.5;exitY=1;exitDx=0;exitDy=0;entryX=0.498;entryY=0.043;entryDx=0;entryDy=0;entryPerimeter=0;" parent="WIyWlLk6GJQsqaUBKTNV-1" source="XjZhIQk6Q3h-rhs3_x2L-2" target="XjZhIQk6Q3h-rhs3_x2L-43" edge="1">
          <mxGeometry relative="1" as="geometry" />
        </mxCell>
        <mxCell id="XjZhIQk6Q3h-rhs3_x2L-46" value="1" style="text;html=1;align=center;verticalAlign=middle;whiteSpace=wrap;rounded=0;" parent="WIyWlLk6GJQsqaUBKTNV-1" vertex="1">
          <mxGeometry x="770" y="270" width="60" height="30" as="geometry" />
        </mxCell>
        <mxCell id="XjZhIQk6Q3h-rhs3_x2L-47" value="M" style="text;html=1;align=center;verticalAlign=middle;whiteSpace=wrap;rounded=0;" parent="WIyWlLk6GJQsqaUBKTNV-1" vertex="1">
          <mxGeometry x="430.01" y="540" width="60" height="30" as="geometry" />
        </mxCell>
        <mxCell id="XjZhIQk6Q3h-rhs3_x2L-51" value="Penalty" style="ellipse;whiteSpace=wrap;html=1;fillColor=#fff2cc;strokeColor=#d6b656;" parent="WIyWlLk6GJQsqaUBKTNV-1" vertex="1">
          <mxGeometry x="520" y="310" width="110" height="50" as="geometry" />
        </mxCell>
        <mxCell id="XjZhIQk6Q3h-rhs3_x2L-53" style="edgeStyle=orthogonalEdgeStyle;rounded=0;orthogonalLoop=1;jettySize=auto;html=1;exitX=0;exitY=0.5;exitDx=0;exitDy=0;entryX=1.03;entryY=0.519;entryDx=0;entryDy=0;entryPerimeter=0;" parent="WIyWlLk6GJQsqaUBKTNV-1" source="XjZhIQk6Q3h-rhs3_x2L-51" target="XjZhIQk6Q3h-rhs3_x2L-30" edge="1">
          <mxGeometry relative="1" as="geometry" />
        </mxCell>
        <mxCell id="XjZhIQk6Q3h-rhs3_x2L-54" value="Publisher_country" style="ellipse;whiteSpace=wrap;html=1;fillColor=#fff2cc;strokeColor=#d6b656;" parent="WIyWlLk6GJQsqaUBKTNV-1" vertex="1">
          <mxGeometry x="480" y="-150" width="110" height="50" as="geometry" />
        </mxCell>
        <mxCell id="XjZhIQk6Q3h-rhs3_x2L-56" style="edgeStyle=orthogonalEdgeStyle;rounded=0;orthogonalLoop=1;jettySize=auto;html=1;exitX=1;exitY=0.5;exitDx=0;exitDy=0;entryX=0.163;entryY=-0.017;entryDx=0;entryDy=0;entryPerimeter=0;" parent="WIyWlLk6GJQsqaUBKTNV-1" source="XjZhIQk6Q3h-rhs3_x2L-5" target="XjZhIQk6Q3h-rhs3_x2L-1" edge="1">
          <mxGeometry relative="1" as="geometry" />
        </mxCell>
        <mxCell id="XjZhIQk6Q3h-rhs3_x2L-57" style="edgeStyle=orthogonalEdgeStyle;rounded=0;orthogonalLoop=1;jettySize=auto;html=1;exitX=0;exitY=0.5;exitDx=0;exitDy=0;entryX=0.686;entryY=-0.007;entryDx=0;entryDy=0;entryPerimeter=0;" parent="WIyWlLk6GJQsqaUBKTNV-1" source="XjZhIQk6Q3h-rhs3_x2L-54" target="XjZhIQk6Q3h-rhs3_x2L-1" edge="1">
          <mxGeometry relative="1" as="geometry" />
        </mxCell>
        <mxCell id="XjZhIQk6Q3h-rhs3_x2L-61" style="edgeStyle=orthogonalEdgeStyle;rounded=0;orthogonalLoop=1;jettySize=auto;html=1;exitX=1;exitY=0.5;exitDx=0;exitDy=0;entryX=0.5;entryY=1;entryDx=0;entryDy=0;" parent="WIyWlLk6GJQsqaUBKTNV-1" source="XjZhIQk6Q3h-rhs3_x2L-58" target="XjZhIQk6Q3h-rhs3_x2L-4" edge="1">
          <mxGeometry relative="1" as="geometry" />
        </mxCell>
        <mxCell id="XjZhIQk6Q3h-rhs3_x2L-58" value="Author_name" style="ellipse;whiteSpace=wrap;html=1;fillColor=#fff2cc;strokeColor=#d6b656;" parent="WIyWlLk6GJQsqaUBKTNV-1" vertex="1">
          <mxGeometry x="-270" y="270" width="110" height="50" as="geometry" />
        </mxCell>
        <mxCell id="XjZhIQk6Q3h-rhs3_x2L-62" style="edgeStyle=orthogonalEdgeStyle;rounded=0;orthogonalLoop=1;jettySize=auto;html=1;exitX=1;exitY=0.5;exitDx=0;exitDy=0;entryX=0.5;entryY=0;entryDx=0;entryDy=0;" parent="WIyWlLk6GJQsqaUBKTNV-1" source="XjZhIQk6Q3h-rhs3_x2L-59" target="XjZhIQk6Q3h-rhs3_x2L-4" edge="1">
          <mxGeometry relative="1" as="geometry" />
        </mxCell>
        <mxCell id="XjZhIQk6Q3h-rhs3_x2L-59" value="&lt;u&gt;Author_Code&lt;/u&gt;" style="ellipse;whiteSpace=wrap;html=1;fillColor=#fff2cc;strokeColor=#d6b656;" parent="WIyWlLk6GJQsqaUBKTNV-1" vertex="1">
          <mxGeometry x="-260" y="130" width="110" height="50" as="geometry" />
        </mxCell>
        <mxCell id="XjZhIQk6Q3h-rhs3_x2L-67" style="edgeStyle=orthogonalEdgeStyle;rounded=0;orthogonalLoop=1;jettySize=auto;html=1;exitX=1;exitY=1;exitDx=0;exitDy=0;entryX=1;entryY=0;entryDx=0;entryDy=0;endArrow=baseDash;endFill=0;" parent="WIyWlLk6GJQsqaUBKTNV-1" source="XjZhIQk6Q3h-rhs3_x2L-64" target="XjZhIQk6Q3h-rhs3_x2L-20" edge="1">
          <mxGeometry relative="1" as="geometry" />
        </mxCell>
        <mxCell id="XjZhIQk6Q3h-rhs3_x2L-64" value="&lt;u&gt;ID&lt;/u&gt;" style="ellipse;whiteSpace=wrap;html=1;fillColor=#fff2cc;strokeColor=#d6b656;" parent="WIyWlLk6GJQsqaUBKTNV-1" vertex="1">
          <mxGeometry x="193.34" y="140" width="110" height="50" as="geometry" />
        </mxCell>
        <mxCell id="XjZhIQk6Q3h-rhs3_x2L-68" style="edgeStyle=orthogonalEdgeStyle;rounded=0;orthogonalLoop=1;jettySize=auto;html=1;exitX=0.5;exitY=0;exitDx=0;exitDy=0;entryX=0;entryY=0.75;entryDx=0;entryDy=0;endArrow=baseDash;endFill=0;" parent="WIyWlLk6GJQsqaUBKTNV-1" source="XjZhIQk6Q3h-rhs3_x2L-65" target="XjZhIQk6Q3h-rhs3_x2L-0" edge="1">
          <mxGeometry relative="1" as="geometry" />
        </mxCell>
        <mxCell id="XjZhIQk6Q3h-rhs3_x2L-65" value="Name" style="ellipse;whiteSpace=wrap;html=1;fillColor=#fff2cc;strokeColor=#d6b656;" parent="WIyWlLk6GJQsqaUBKTNV-1" vertex="1">
          <mxGeometry x="211.67000000000002" y="300" width="110" height="50" as="geometry" />
        </mxCell>
        <mxCell id="XjZhIQk6Q3h-rhs3_x2L-69" style="edgeStyle=orthogonalEdgeStyle;rounded=0;orthogonalLoop=1;jettySize=auto;html=1;exitX=0;exitY=0.5;exitDx=0;exitDy=0;entryX=0.75;entryY=0;entryDx=0;entryDy=0;endArrow=baseDash;endFill=0;" parent="WIyWlLk6GJQsqaUBKTNV-1" source="XjZhIQk6Q3h-rhs3_x2L-66" target="XjZhIQk6Q3h-rhs3_x2L-0" edge="1">
          <mxGeometry relative="1" as="geometry" />
        </mxCell>
        <mxCell id="XjZhIQk6Q3h-rhs3_x2L-66" value="Status" style="ellipse;whiteSpace=wrap;html=1;fillColor=#fff2cc;strokeColor=#d6b656;" parent="WIyWlLk6GJQsqaUBKTNV-1" vertex="1">
          <mxGeometry x="460" y="140" width="110" height="50" as="geometry" />
        </mxCell>
        <mxCell id="XjZhIQk6Q3h-rhs3_x2L-70" value="Price" style="ellipse;whiteSpace=wrap;html=1;fillColor=#fff2cc;strokeColor=#d6b656;" parent="WIyWlLk6GJQsqaUBKTNV-1" vertex="1">
          <mxGeometry x="530" y="80" width="110" height="50" as="geometry" />
        </mxCell>
        <mxCell id="XjZhIQk6Q3h-rhs3_x2L-71" style="edgeStyle=orthogonalEdgeStyle;rounded=0;orthogonalLoop=1;jettySize=auto;html=1;exitX=0;exitY=0.5;exitDx=0;exitDy=0;entryX=0.633;entryY=-0.079;entryDx=0;entryDy=0;entryPerimeter=0;endArrow=baseDash;endFill=0;" parent="WIyWlLk6GJQsqaUBKTNV-1" edge="1">
          <mxGeometry relative="1" as="geometry">
            <mxPoint x="530.0000000000016" y="109.74" as="sourcePoint" />
            <mxPoint x="385.96000000000004" y="210" as="targetPoint" />
            <Array as="points">
              <mxPoint x="450" y="109.74" />
              <mxPoint x="450" y="154.74" />
              <mxPoint x="386" y="154.74" />
            </Array>
          </mxGeometry>
        </mxCell>
        <mxCell id="XjZhIQk6Q3h-rhs3_x2L-73" style="edgeStyle=orthogonalEdgeStyle;rounded=0;orthogonalLoop=1;jettySize=auto;html=1;exitX=0;exitY=0.5;exitDx=0;exitDy=0;entryX=0.75;entryY=1;entryDx=0;entryDy=0;" parent="WIyWlLk6GJQsqaUBKTNV-1" source="XjZhIQk6Q3h-rhs3_x2L-72" target="XjZhIQk6Q3h-rhs3_x2L-0" edge="1">
          <mxGeometry relative="1" as="geometry" />
        </mxCell>
        <mxCell id="XjZhIQk6Q3h-rhs3_x2L-72" value="Date" style="ellipse;whiteSpace=wrap;html=1;fillColor=#fff2cc;strokeColor=#d6b656;" parent="WIyWlLk6GJQsqaUBKTNV-1" vertex="1">
          <mxGeometry x="440" y="260" width="110" height="50" as="geometry" />
        </mxCell>
        <mxCell id="XjZhIQk6Q3h-rhs3_x2L-74" value="&lt;u&gt;Admin_Id&lt;/u&gt;" style="ellipse;whiteSpace=wrap;html=1;fillColor=#fff2cc;strokeColor=#d6b656;" parent="WIyWlLk6GJQsqaUBKTNV-1" vertex="1">
          <mxGeometry x="786.66" y="130" width="110" height="50" as="geometry" />
        </mxCell>
        <mxCell id="XjZhIQk6Q3h-rhs3_x2L-77" style="edgeStyle=orthogonalEdgeStyle;rounded=0;orthogonalLoop=1;jettySize=auto;html=1;exitX=0;exitY=0.5;exitDx=0;exitDy=0;entryX=1;entryY=0.5;entryDx=0;entryDy=0;" parent="WIyWlLk6GJQsqaUBKTNV-1" source="XjZhIQk6Q3h-rhs3_x2L-75" target="XjZhIQk6Q3h-rhs3_x2L-2" edge="1">
          <mxGeometry relative="1" as="geometry" />
        </mxCell>
        <mxCell id="XjZhIQk6Q3h-rhs3_x2L-75" value="Name" style="ellipse;whiteSpace=wrap;html=1;fillColor=#fff2cc;strokeColor=#d6b656;" parent="WIyWlLk6GJQsqaUBKTNV-1" vertex="1">
          <mxGeometry x="930" y="170" width="110" height="50" as="geometry" />
        </mxCell>
        <mxCell id="XjZhIQk6Q3h-rhs3_x2L-76" style="edgeStyle=orthogonalEdgeStyle;rounded=0;orthogonalLoop=1;jettySize=auto;html=1;exitX=0.5;exitY=1;exitDx=0;exitDy=0;entryX=0.592;entryY=-0.063;entryDx=0;entryDy=0;entryPerimeter=0;" parent="WIyWlLk6GJQsqaUBKTNV-1" source="XjZhIQk6Q3h-rhs3_x2L-74" target="XjZhIQk6Q3h-rhs3_x2L-2" edge="1">
          <mxGeometry relative="1" as="geometry" />
        </mxCell>
        <mxCell id="XjZhIQk6Q3h-rhs3_x2L-79" style="edgeStyle=orthogonalEdgeStyle;rounded=0;orthogonalLoop=1;jettySize=auto;html=1;exitX=0;exitY=0.5;exitDx=0;exitDy=0;entryX=0.75;entryY=1;entryDx=0;entryDy=0;" parent="WIyWlLk6GJQsqaUBKTNV-1" source="XjZhIQk6Q3h-rhs3_x2L-78" target="XjZhIQk6Q3h-rhs3_x2L-2" edge="1">
          <mxGeometry relative="1" as="geometry" />
        </mxCell>
        <mxCell id="XjZhIQk6Q3h-rhs3_x2L-78" value="Contact_no" style="ellipse;whiteSpace=wrap;html=1;fillColor=#fff2cc;strokeColor=#d6b656;" parent="WIyWlLk6GJQsqaUBKTNV-1" vertex="1">
          <mxGeometry x="940" y="270" width="110" height="50" as="geometry" />
        </mxCell>
        <mxCell id="XjZhIQk6Q3h-rhs3_x2L-80" value="National_ID" style="ellipse;whiteSpace=wrap;html=1;fillColor=#fff2cc;strokeColor=#d6b656;" parent="WIyWlLk6GJQsqaUBKTNV-1" vertex="1">
          <mxGeometry x="113.33" y="620" width="110" height="50" as="geometry" />
        </mxCell>
        <mxCell id="XjZhIQk6Q3h-rhs3_x2L-82" style="edgeStyle=orthogonalEdgeStyle;rounded=0;orthogonalLoop=1;jettySize=auto;html=1;exitX=1;exitY=0.5;exitDx=0;exitDy=0;" parent="WIyWlLk6GJQsqaUBKTNV-1" source="XjZhIQk6Q3h-rhs3_x2L-81" edge="1">
          <mxGeometry relative="1" as="geometry">
            <mxPoint x="310" y="575.125" as="targetPoint" />
          </mxGeometry>
        </mxCell>
        <mxCell id="XjZhIQk6Q3h-rhs3_x2L-81" value="&lt;u&gt;ID&lt;/u&gt;" style="ellipse;whiteSpace=wrap;html=1;fillColor=#fff2cc;strokeColor=#d6b656;" parent="WIyWlLk6GJQsqaUBKTNV-1" vertex="1">
          <mxGeometry x="120" y="550" width="110" height="50" as="geometry" />
        </mxCell>
        <mxCell id="XjZhIQk6Q3h-rhs3_x2L-83" style="edgeStyle=orthogonalEdgeStyle;rounded=0;orthogonalLoop=1;jettySize=auto;html=1;exitX=1;exitY=0.5;exitDx=0;exitDy=0;entryX=0.137;entryY=1.01;entryDx=0;entryDy=0;entryPerimeter=0;" parent="WIyWlLk6GJQsqaUBKTNV-1" source="XjZhIQk6Q3h-rhs3_x2L-80" target="XjZhIQk6Q3h-rhs3_x2L-3" edge="1">
          <mxGeometry relative="1" as="geometry" />
        </mxCell>
        <mxCell id="XjZhIQk6Q3h-rhs3_x2L-84" value="Name" style="ellipse;whiteSpace=wrap;html=1;fillColor=#fff2cc;strokeColor=#d6b656;" parent="WIyWlLk6GJQsqaUBKTNV-1" vertex="1">
          <mxGeometry x="260" y="670" width="110" height="50" as="geometry" />
        </mxCell>
        <mxCell id="XjZhIQk6Q3h-rhs3_x2L-85" value="Address" style="ellipse;whiteSpace=wrap;html=1;fillColor=#fff2cc;strokeColor=#d6b656;" parent="WIyWlLk6GJQsqaUBKTNV-1" vertex="1">
          <mxGeometry x="436.67" y="770" width="110" height="50" as="geometry" />
        </mxCell>
        <mxCell id="XjZhIQk6Q3h-rhs3_x2L-86" value="BirthofDate" style="ellipse;whiteSpace=wrap;html=1;fillColor=#fff2cc;strokeColor=#d6b656;" parent="WIyWlLk6GJQsqaUBKTNV-1" vertex="1">
          <mxGeometry x="540" y="620" width="110" height="50" as="geometry" />
        </mxCell>
        <mxCell id="XjZhIQk6Q3h-rhs3_x2L-87" value="Book_genre" style="ellipse;whiteSpace=wrap;html=1;fillColor=#fff2cc;strokeColor=#d6b656;" parent="WIyWlLk6GJQsqaUBKTNV-1" vertex="1">
          <mxGeometry x="10" y="310" width="110" height="50" as="geometry" />
        </mxCell>
        <mxCell id="XjZhIQk6Q3h-rhs3_x2L-88" style="edgeStyle=orthogonalEdgeStyle;rounded=0;orthogonalLoop=1;jettySize=auto;html=1;exitX=1;exitY=0.5;exitDx=0;exitDy=0;entryX=-0.006;entryY=0.636;entryDx=0;entryDy=0;entryPerimeter=0;" parent="WIyWlLk6GJQsqaUBKTNV-1" source="XjZhIQk6Q3h-rhs3_x2L-87" target="XjZhIQk6Q3h-rhs3_x2L-0" edge="1">
          <mxGeometry relative="1" as="geometry">
            <Array as="points">
              <mxPoint x="210" y="335" />
              <mxPoint x="210" y="250" />
              <mxPoint x="309" y="250" />
            </Array>
          </mxGeometry>
        </mxCell>
        <mxCell id="XjZhIQk6Q3h-rhs3_x2L-164" style="edgeStyle=orthogonalEdgeStyle;rounded=0;orthogonalLoop=1;jettySize=auto;html=1;exitX=0.5;exitY=0;exitDx=0;exitDy=0;entryX=0;entryY=0.5;entryDx=0;entryDy=0;" parent="WIyWlLk6GJQsqaUBKTNV-1" source="XjZhIQk6Q3h-rhs3_x2L-162" target="XjZhIQk6Q3h-rhs3_x2L-84" edge="1">
          <mxGeometry relative="1" as="geometry" />
        </mxCell>
        <mxCell id="XjZhIQk6Q3h-rhs3_x2L-162" value="F_Name" style="ellipse;whiteSpace=wrap;html=1;fillColor=#fff2cc;strokeColor=#d6b656;" parent="WIyWlLk6GJQsqaUBKTNV-1" vertex="1">
          <mxGeometry x="130" y="730" width="110" height="50" as="geometry" />
        </mxCell>
        <mxCell id="XjZhIQk6Q3h-rhs3_x2L-165" style="edgeStyle=orthogonalEdgeStyle;rounded=0;orthogonalLoop=1;jettySize=auto;html=1;exitX=0.5;exitY=0;exitDx=0;exitDy=0;entryX=0.5;entryY=1;entryDx=0;entryDy=0;" parent="WIyWlLk6GJQsqaUBKTNV-1" source="XjZhIQk6Q3h-rhs3_x2L-163" target="XjZhIQk6Q3h-rhs3_x2L-84" edge="1">
          <mxGeometry relative="1" as="geometry" />
        </mxCell>
        <mxCell id="XjZhIQk6Q3h-rhs3_x2L-163" value="L_Name" style="ellipse;whiteSpace=wrap;html=1;fillColor=#fff2cc;strokeColor=#d6b656;" parent="WIyWlLk6GJQsqaUBKTNV-1" vertex="1">
          <mxGeometry x="260" y="780" width="110" height="50" as="geometry" />
        </mxCell>
        <mxCell id="XjZhIQk6Q3h-rhs3_x2L-166" style="edgeStyle=orthogonalEdgeStyle;rounded=0;orthogonalLoop=1;jettySize=auto;html=1;exitX=1;exitY=0.5;exitDx=0;exitDy=0;entryX=0.455;entryY=1.036;entryDx=0;entryDy=0;entryPerimeter=0;" parent="WIyWlLk6GJQsqaUBKTNV-1" source="XjZhIQk6Q3h-rhs3_x2L-84" target="XjZhIQk6Q3h-rhs3_x2L-3" edge="1">
          <mxGeometry relative="1" as="geometry" />
        </mxCell>
        <mxCell id="XjZhIQk6Q3h-rhs3_x2L-169" style="edgeStyle=orthogonalEdgeStyle;rounded=0;orthogonalLoop=1;jettySize=auto;html=1;exitX=0.5;exitY=0;exitDx=0;exitDy=0;entryX=0.805;entryY=1.058;entryDx=0;entryDy=0;entryPerimeter=0;" parent="WIyWlLk6GJQsqaUBKTNV-1" source="XjZhIQk6Q3h-rhs3_x2L-85" target="XjZhIQk6Q3h-rhs3_x2L-3" edge="1">
          <mxGeometry relative="1" as="geometry" />
        </mxCell>
        <mxCell id="XjZhIQk6Q3h-rhs3_x2L-170" style="edgeStyle=orthogonalEdgeStyle;rounded=0;orthogonalLoop=1;jettySize=auto;html=1;exitX=0;exitY=0.5;exitDx=0;exitDy=0;entryX=0.944;entryY=1.014;entryDx=0;entryDy=0;entryPerimeter=0;" parent="WIyWlLk6GJQsqaUBKTNV-1" source="XjZhIQk6Q3h-rhs3_x2L-86" target="XjZhIQk6Q3h-rhs3_x2L-3" edge="1">
          <mxGeometry relative="1" as="geometry" />
        </mxCell>
        <mxCell id="XjZhIQk6Q3h-rhs3_x2L-339" style="edgeStyle=orthogonalEdgeStyle;rounded=0;orthogonalLoop=1;jettySize=auto;html=1;exitX=0.5;exitY=0;exitDx=0;exitDy=0;entryX=1;entryY=0.75;entryDx=0;entryDy=0;" parent="WIyWlLk6GJQsqaUBKTNV-1" source="XjZhIQk6Q3h-rhs3_x2L-174" target="XjZhIQk6Q3h-rhs3_x2L-3" edge="1">
          <mxGeometry relative="1" as="geometry">
            <Array as="points">
              <mxPoint x="660" y="710" />
              <mxPoint x="660" y="585" />
            </Array>
          </mxGeometry>
        </mxCell>
        <mxCell id="XjZhIQk6Q3h-rhs3_x2L-174" value="Email" style="ellipse;whiteSpace=wrap;html=1;fillColor=#fff2cc;strokeColor=#d6b656;" parent="WIyWlLk6GJQsqaUBKTNV-1" vertex="1">
          <mxGeometry x="590" y="720" width="110" height="50" as="geometry" />
        </mxCell>
        <mxCell id="XjZhIQk6Q3h-rhs3_x2L-340" style="edgeStyle=orthogonalEdgeStyle;rounded=0;orthogonalLoop=1;jettySize=auto;html=1;exitX=0.5;exitY=0;exitDx=0;exitDy=0;entryX=0.75;entryY=1;entryDx=0;entryDy=0;" parent="WIyWlLk6GJQsqaUBKTNV-1" source="XjZhIQk6Q3h-rhs3_x2L-338" target="XjZhIQk6Q3h-rhs3_x2L-3" edge="1">
          <mxGeometry relative="1" as="geometry" />
        </mxCell>
        <mxCell id="XjZhIQk6Q3h-rhs3_x2L-338" value="Password" style="ellipse;whiteSpace=wrap;html=1;fillColor=#fff2cc;strokeColor=#d6b656;" parent="WIyWlLk6GJQsqaUBKTNV-1" vertex="1">
          <mxGeometry x="350" y="870" width="110" height="50" as="geometry" />
        </mxCell>
        <mxCell id="XjZhIQk6Q3h-rhs3_x2L-344" style="edgeStyle=orthogonalEdgeStyle;rounded=0;orthogonalLoop=1;jettySize=auto;html=1;exitX=0;exitY=0.5;exitDx=0;exitDy=0;entryX=1;entryY=0.75;entryDx=0;entryDy=0;" parent="WIyWlLk6GJQsqaUBKTNV-1" source="XjZhIQk6Q3h-rhs3_x2L-341" target="XjZhIQk6Q3h-rhs3_x2L-2" edge="1">
          <mxGeometry relative="1" as="geometry" />
        </mxCell>
        <mxCell id="XjZhIQk6Q3h-rhs3_x2L-341" value="Email" style="ellipse;whiteSpace=wrap;html=1;fillColor=#fff2cc;strokeColor=#d6b656;" parent="WIyWlLk6GJQsqaUBKTNV-1" vertex="1">
          <mxGeometry x="1030" y="215" width="110" height="50" as="geometry" />
        </mxCell>
        <mxCell id="XjZhIQk6Q3h-rhs3_x2L-342" value="Password" style="ellipse;whiteSpace=wrap;html=1;fillColor=#fff2cc;strokeColor=#d6b656;" parent="WIyWlLk6GJQsqaUBKTNV-1" vertex="1">
          <mxGeometry x="910" y="350" width="110" height="50" as="geometry" />
        </mxCell>
        <mxCell id="XjZhIQk6Q3h-rhs3_x2L-343" style="edgeStyle=orthogonalEdgeStyle;rounded=0;orthogonalLoop=1;jettySize=auto;html=1;exitX=0;exitY=0.5;exitDx=0;exitDy=0;entryX=0.626;entryY=1.032;entryDx=0;entryDy=0;entryPerimeter=0;" parent="WIyWlLk6GJQsqaUBKTNV-1" source="XjZhIQk6Q3h-rhs3_x2L-342" target="XjZhIQk6Q3h-rhs3_x2L-2" edge="1">
          <mxGeometry relative="1" as="geometry" />
        </mxCell>
        <mxCell id="XjZhIQk6Q3h-rhs3_x2L-345" value="Image" style="ellipse;whiteSpace=wrap;html=1;fillColor=#fff2cc;strokeColor=#d6b656;" parent="WIyWlLk6GJQsqaUBKTNV-1" vertex="1">
          <mxGeometry x="640" y="140" width="110" height="50" as="geometry" />
        </mxCell>
        <mxCell id="XjZhIQk6Q3h-rhs3_x2L-346" style="edgeStyle=orthogonalEdgeStyle;rounded=0;orthogonalLoop=1;jettySize=auto;html=1;exitX=0;exitY=0.5;exitDx=0;exitDy=0;entryX=0.892;entryY=0.021;entryDx=0;entryDy=0;entryPerimeter=0;" parent="WIyWlLk6GJQsqaUBKTNV-1" source="XjZhIQk6Q3h-rhs3_x2L-345" target="XjZhIQk6Q3h-rhs3_x2L-0" edge="1">
          <mxGeometry relative="1" as="geometry">
            <Array as="points">
              <mxPoint x="580" y="165" />
              <mxPoint x="580" y="200" />
              <mxPoint x="417" y="200" />
            </Array>
          </mxGeometry>
        </mxCell>
        <mxCell id="XjZhIQk6Q3h-rhs3_x2L-349" style="edgeStyle=orthogonalEdgeStyle;rounded=0;orthogonalLoop=1;jettySize=auto;html=1;exitX=1;exitY=0.5;exitDx=0;exitDy=0;entryX=1;entryY=0.25;entryDx=0;entryDy=0;" parent="WIyWlLk6GJQsqaUBKTNV-1" source="XjZhIQk6Q3h-rhs3_x2L-348" target="XjZhIQk6Q3h-rhs3_x2L-20" edge="1">
          <mxGeometry relative="1" as="geometry">
            <Array as="points">
              <mxPoint x="190" y="105" />
              <mxPoint x="190" y="218" />
            </Array>
          </mxGeometry>
        </mxCell>
        <mxCell id="XjZhIQk6Q3h-rhs3_x2L-348" value="Book_language" style="ellipse;whiteSpace=wrap;html=1;fillColor=#fff2cc;strokeColor=#d6b656;" parent="WIyWlLk6GJQsqaUBKTNV-1" vertex="1">
          <mxGeometry x="60" y="80" width="110" height="50" as="geometry" />
        </mxCell>
        <mxCell id="XjZhIQk6Q3h-rhs3_x2L-351" style="edgeStyle=orthogonalEdgeStyle;rounded=0;orthogonalLoop=1;jettySize=auto;html=1;exitX=1;exitY=0.5;exitDx=0;exitDy=0;entryX=0;entryY=0.75;entryDx=0;entryDy=0;" parent="WIyWlLk6GJQsqaUBKTNV-1" source="XjZhIQk6Q3h-rhs3_x2L-350" target="XjZhIQk6Q3h-rhs3_x2L-3" edge="1">
          <mxGeometry relative="1" as="geometry">
            <Array as="points">
              <mxPoint x="260" y="605" />
              <mxPoint x="260" y="585" />
            </Array>
          </mxGeometry>
        </mxCell>
        <mxCell id="XjZhIQk6Q3h-rhs3_x2L-350" value="Image" style="ellipse;whiteSpace=wrap;html=1;fillColor=#fff2cc;strokeColor=#d6b656;" parent="WIyWlLk6GJQsqaUBKTNV-1" vertex="1">
          <mxGeometry x="-59.999999999999986" y="580" width="110" height="50" as="geometry" />
        </mxCell>
      </root>
    </mxGraphModel>
  </diagram>
</mxfile>
